<svg xmlns="http://www.w3.org/2000/svg" version="1.1" xmlns:xlink="http://www.w3.org/1999/xlink" viewBox="0 0 200 200"><rect width="200" height="200" fill="url('#gradient')"></rect><defs><linearGradient id="gradient" gradientTransform="rotate(56 0.5 0.5)"><stop offset="0%" stop-color="#2025af"></stop><stop offset="100%" stop-color="#73446a"></stop></linearGradient></defs><g><g fill="#edfeff" transform="matrix(6.071746219982212,0,0,6.071746219982212,-6.502370794519919,143.17437169532764)" stroke="#dcbf16" stroke-width="0.2"><path d="M9.89-8.57L9.89-6.03L4.50-6.03L4.50-2.64L10.87-2.64L10.87 0L1.07 0L1.07-14.22L10.89-14.22L10.89-11.57L4.50-11.57L4.50-8.57L9.89-8.57ZM15.69-14.22L15.69-2.64L21.66-2.64L21.66 0L12.27 0L12.27-14.22L15.69-14.22ZM30.58-4.81L33.98-4.81Q33.92-3.33 33.18-2.19Q32.45-1.05 31.13-0.43Q29.80 0.20 28.11 0.20L28.11 0.20Q25.30 0.20 23.69-1.63Q22.08-3.46 22.08-6.79L22.08-6.79L22.08-7.49Q22.08-9.58 22.81-11.15Q23.54-12.71 24.90-13.57Q26.27-14.42 28.07-14.42L28.07-14.42Q30.65-14.42 32.23-13.06Q33.80-11.70 34.01-9.31L34.01-9.31L30.60-9.31Q30.56-10.61 29.94-11.17Q29.33-11.74 28.07-11.74L28.07-11.74Q26.79-11.74 26.19-10.78Q25.60-9.82 25.57-7.72L25.57-7.72L25.57-6.72Q25.57-4.44 26.14-3.47Q26.71-2.49 28.11-2.49L28.11-2.49Q29.29-2.49 29.91-3.05Q30.54-3.60 30.58-4.81L30.58-4.81Z"></path></g></g></svg>