<?xml version="1.0" standalone="no"?>
<!DOCTYPE svg PUBLIC "-//W3C//DTD SVG 20010904//EN"
 "http://www.w3.org/TR/2001/REC-SVG-20010904/DTD/svg10.dtd">
<svg version="1.0" xmlns="http://www.w3.org/2000/svg"
 width="1344.000000pt" height="768.000000pt" viewBox="0 0 1344.000000 768.000000"
 preserveAspectRatio="xMidYMid meet">

<g transform="translate(0.000000,768.000000) scale(0.100000,-0.100000)"
fill="#000000" stroke="none">
<path d="M6108 5166 c-199 -69 -447 -242 -643 -448 -138 -145 -244 -284 -478
-624 -315 -457 -389 -558 -397 -543 -24 45 -59 348 -67 582 -7 210 -6 208 -73
188 -58 -17 -142 -90 -476 -411 -168 -162 -311 -297 -317 -299 -15 -6 -2 62
39 191 140 447 201 767 161 845 -30 56 -46 58 -517 57 -234 -1 -738 -7 -1120
-14 l-695 -13 -72 -29 c-40 -17 -73 -33 -73 -38 0 -16 82 -20 740 -30 822 -13
1292 -26 1345 -39 23 -6 51 -23 68 -41 23 -25 27 -39 27 -86 0 -138 -53 -383
-198 -909 -88 -318 -83 -295 -66 -302 16 -6 118 50 200 110 32 24 133 116 224
203 320 310 490 469 503 469 8 0 14 -29 19 -90 13 -157 39 -346 68 -490 30
-149 42 -189 60 -200 13 -8 80 29 168 94 75 54 97 83 467 606 427 604 480 671
669 844 132 121 215 180 351 250 174 89 260 159 225 181 -24 15 -70 11 -142
-14z"/>
<path d="M10315 5120 c-11 -5 -55 -23 -99 -41 -43 -18 -95 -46 -114 -63 -52
-46 -244 -342 -417 -646 -114 -199 -163 -276 -240 -376 -113 -145 -360 -361
-402 -352 -41 8 -2 160 62 244 45 59 125 64 125 8 0 -24 3 -26 31 -20 38 7
118 73 170 138 45 58 54 81 39 108 -9 16 -21 20 -68 21 -87 2 -91 1 -177 -41
-145 -70 -323 -216 -395 -322 -44 -66 -241 -169 -360 -189 -62 -10 -84 -9
-125 2 -27 8 -50 20 -50 25 0 6 38 40 85 75 175 132 304 275 317 352 9 55 -14
83 -82 98 -47 10 -64 10 -116 -5 -159 -44 -357 -188 -450 -328 -39 -58 -70
-141 -78 -207 -6 -54 -7 -55 -63 -88 -32 -19 -62 -43 -68 -53 -10 -19 -7 -20
32 -19 24 0 63 4 88 8 33 5 57 3 93 -11 126 -48 366 -4 589 108 48 24 92 44
98 44 6 0 10 -29 10 -70 0 -63 2 -71 25 -86 84 -55 286 56 606 333 53 46 99
83 103 83 3 0 6 -26 6 -57 0 -85 35 -238 69 -308 17 -33 53 -88 80 -122 l51
-63 -1076 -2 c-592 -2 -1078 0 -1080 4 -3 4 57 94 134 200 143 200 269 390
298 451 22 47 13 67 -29 67 -51 0 -139 -49 -262 -146 -127 -100 -306 -221
-340 -230 -45 -11 -60 -1 -59 38 3 86 146 278 206 278 37 0 76 -19 83 -42 10
-29 37 -21 112 31 74 52 123 103 123 127 0 46 -51 74 -133 74 -130 0 -394
-163 -530 -327 -96 -115 -207 -163 -258 -110 -25 26 -34 47 -60 146 -11 42
-27 86 -35 99 -36 55 -150 12 -402 -152 -40 -26 -75 -46 -77 -44 -2 2 25 54
60 116 36 62 72 134 80 159 15 44 15 48 -1 60 -28 20 -54 16 -131 -21 -91 -44
-228 -130 -463 -290 -112 -77 -193 -126 -208 -126 -23 0 -24 3 -19 38 3 20 43
109 88 198 52 101 80 167 76 177 -10 26 -74 21 -131 -9 -27 -14 -171 -105
-320 -201 -269 -173 -359 -244 -338 -265 18 -18 110 23 275 123 82 49 151 88
153 86 2 -2 -14 -42 -35 -89 -63 -136 -86 -251 -61 -299 17 -30 84 -25 156 11
32 16 149 92 259 169 237 165 344 235 351 228 6 -5 -63 -145 -144 -294 -79
-146 -78 -166 8 -138 60 20 128 65 230 153 111 95 279 204 309 200 22 -3 31
-17 66 -105 22 -57 49 -115 61 -130 19 -25 27 -28 80 -27 49 1 77 9 168 52 60
29 113 52 117 52 5 0 9 -27 9 -60 0 -69 21 -100 68 -100 78 0 215 62 388 175
48 31 91 54 96 53 11 -4 -168 -276 -219 -335 l-28 -32 -125 -5 c-69 -3 -246
-8 -395 -11 -148 -3 -326 -8 -395 -10 -131 -6 -152 -7 -660 -31 -173 -8 -416
-17 -540 -21 -142 -4 -239 -11 -262 -19 -69 -24 -248 -148 -248 -171 0 -20
337 -8 1010 37 80 5 260 14 400 20 140 5 296 12 345 15 50 2 235 7 413 11 273
6 322 5 322 -7 0 -15 -186 -277 -408 -574 -78 -104 -142 -193 -142 -197 0 -41
257 96 314 167 18 22 83 114 146 205 150 218 276 386 303 405 13 9 45 15 82
16 40 0 53 3 40 8 -12 5 16 8 72 8 51 1 90 -3 87 -8 -3 -5 4 -9 15 -9 11 0 22
4 25 8 2 4 39 9 81 11 62 2 75 0 69 -11 -6 -10 -4 -10 9 1 11 9 30 12 52 8 19
-3 37 -2 39 2 3 5 171 6 171 1 0 0 36 0 80 1 44 0 665 0 1380 -1 981 -1 1302
-4 1308 -13 5 -8 10 -8 13 -2 2 6 62 8 161 6 87 -3 240 -5 340 -5 100 -1 185
-4 189 -8 12 -12 42 -9 47 5 4 10 7 10 18 0 22 -22 91 -15 174 18 99 37 225
108 225 126 0 10 -55 13 -282 14 -156 0 -290 2 -298 3 -8 2 -249 6 -535 10
-531 7 -677 15 -781 42 -150 38 -268 133 -334 268 -97 199 -89 393 27 664 60
140 257 462 452 741 39 56 69 106 66 112 -7 11 -33 11 -60 -1z m-1897 -1180
c21 -20 21 -22 6 -58 -8 -20 -29 -52 -47 -70 -37 -40 -110 -92 -127 -92 -29 0
24 149 74 208 32 37 63 41 94 12z"/>
<path d="M6026 4576 c-16 -13 -62 -41 -103 -62 -83 -42 -96 -55 -159 -169 -46
-83 -49 -105 -13 -105 31 0 181 73 205 101 29 32 154 234 154 248 0 20 -54 11
-84 -13z"/>
<path d="M9418 3123 c7 -3 16 -2 19 1 4 3 -2 6 -13 5 -11 0 -14 -3 -6 -6z"/>
<path d="M9513 3123 c9 -2 23 -2 30 0 6 3 -1 5 -18 5 -16 0 -22 -2 -12 -5z"/>
<path d="M9588 3123 c12 -2 32 -2 45 0 12 2 2 4 -23 4 -25 0 -35 -2 -22 -4z"/>
<path d="M10085 3120 c-61 -6 -54 -7 53 -8 69 -1 122 2 122 7 0 10 -63 10
-175 1z"/>
<path d="M10320 3121 c0 -5 9 -7 20 -4 11 3 20 7 20 9 0 2 -9 4 -20 4 -11 0
-20 -4 -20 -9z"/>
</g>
</svg>
